<svg width="25" height="25" viewBox="0 0 25 25" fill="none" xmlns="http://www.w3.org/2000/svg">
<path d="M15.0533 10.0774L14.0726 9.93251C14.0516 10.0749 14.0618 10.2202 14.1026 10.3583C14.1434 10.4963 14.2137 10.6239 14.3087 10.732C14.4038 10.8402 14.5212 10.9263 14.6529 10.9845C14.7845 11.0427 14.9273 11.0715 15.0712 11.069L15.0533 10.0774ZM4.14592 10.275L4.12796 9.28338C3.86497 9.28815 3.61465 9.39719 3.43207 9.58651C3.24948 9.77584 3.14957 10.0299 3.15434 10.2929L4.14592 10.275ZM6.32662 21.1464L17.591 20.9424L17.555 18.9592L6.2907 19.1633L6.32662 21.1464ZM18.5654 9.0219L15.0353 9.08584L15.0712 11.069L18.6013 11.0051L18.5654 9.0219ZM16.0349 10.2223L16.7463 5.41357L14.785 5.12275L14.0726 9.93251L16.0349 10.2223ZM14.7491 3.13959L14.5369 3.14344L14.5728 5.1266L14.785 5.12275L14.7491 3.13959ZM11.2679 4.96923L8.84286 8.75659L10.5128 9.82736L12.9398 6.03996L11.2679 4.96923ZM8.02486 9.21281L4.12796 9.28338L4.16388 11.2665L8.06078 11.196L8.02486 9.21281ZM3.15434 10.2929L3.29801 18.2256L5.28117 18.1896L5.1375 10.257L3.15434 10.2929ZM20.4649 18.4979L21.547 12.5269L19.5965 12.1734L18.5143 18.1444L20.4649 18.4979ZM8.84286 8.75659C8.75474 8.894 8.63307 9.00754 8.49055 9.08712C8.34803 9.1667 8.18807 9.20987 8.02486 9.21281L8.06078 11.196C8.55049 11.1871 9.03043 11.0574 9.45799 10.8185C9.88556 10.5796 10.2475 10.2388 10.5118 9.82639L8.84286 8.75659ZM16.7463 5.41357C16.7885 5.12866 16.7682 4.83797 16.6867 4.56172C16.6053 4.28546 16.4646 4.03026 16.2746 3.81385C16.0845 3.59745 15.8496 3.42504 15.5861 3.3086C15.3227 3.19216 15.0371 3.13449 14.7491 3.13959L14.785 5.12275L16.7463 5.41357ZM18.6013 11.0051C18.748 11.0023 18.8935 11.0322 19.0273 11.0926C19.1611 11.1529 19.2798 11.2421 19.3749 11.3539C19.47 11.4657 19.5391 11.5971 19.5773 11.7389C19.6154 11.8806 19.6226 12.029 19.5965 12.1734L21.547 12.5269C21.6254 12.0938 21.6068 11.6488 21.4925 11.2238C21.3782 10.7988 21.171 10.4045 20.8859 10.0692C20.6008 9.73394 20.2449 9.46611 19.8438 9.285C19.4427 9.1039 19.0064 9.01404 18.5663 9.02189L18.6013 11.0051ZM17.591 20.9424C18.2787 20.93 18.941 20.6796 19.465 20.2339C19.9889 19.7883 20.3423 19.1748 20.4649 18.4979L18.5143 18.1444C18.4734 18.3702 18.3555 18.5749 18.1805 18.7235C18.0056 18.8721 17.7845 18.9554 17.555 18.9592L17.591 20.9424ZM14.5369 3.14344C13.884 3.15527 13.2441 3.32811 12.674 3.64661C12.1039 3.9651 11.6203 4.41943 11.2679 4.96923L12.9398 6.03996C13.1159 5.76497 13.3562 5.53774 13.6413 5.3784C13.9263 5.21906 14.2463 5.13257 14.5728 5.1266L14.5369 3.14344ZM6.2907 19.1633C6.02772 19.168 5.77362 19.0681 5.58429 18.8855C5.39497 18.7029 5.28593 18.4526 5.28117 18.1896L3.29801 18.2256C3.3123 19.0145 3.63941 19.7655 4.20739 20.3132C4.77536 20.861 5.53767 21.1607 6.32662 21.1464L6.2907 19.1633Z" fill="white"/>
<path d="M8.11224 10.2031L8.29183 20.1189" stroke="white" stroke-width="2"/>
</svg>
