<svg width="25" height="24" viewBox="0 0 25 24" fill="none" xmlns="http://www.w3.org/2000/svg">
<path d="M15.5383 14L14.5523 14.164C14.5285 14.0208 14.5362 13.8741 14.5748 13.7342C14.6133 13.5943 14.6819 13.4644 14.7758 13.3536C14.8696 13.2429 14.9864 13.1539 15.1181 13.0928C15.2498 13.0317 15.3932 13.0001 15.5383 13V14ZM4.53833 14V15C4.27311 15 4.01876 14.8946 3.83122 14.7071C3.64369 14.5196 3.53833 14.2652 3.53833 14H4.53833ZM6.53833 3H17.8983V5H6.53833V3ZM19.0983 15H15.5383V13H19.0983V15ZM16.5253 13.836L17.3303 18.671L15.3583 19L14.5523 14.164L16.5253 13.836ZM15.3583 21H15.1443V19H15.3583V21ZM11.8153 19.219L9.30033 15.445L10.9643 14.335L13.4803 18.109L11.8153 19.219ZM8.46833 15H4.53833V13H8.46833V15ZM3.53833 14V6H5.53833V14H3.53833ZM20.8403 5.412L22.0403 11.412L20.0803 11.804L18.8803 5.804L20.8403 5.412ZM9.30033 15.445C9.20898 15.3081 9.08525 15.1958 8.94011 15.1182C8.79498 15.0406 8.63292 15 8.46833 15V13C8.9622 13 9.44842 13.122 9.88383 13.3551C10.3193 13.5881 10.6904 13.9251 10.9643 14.336L9.30033 15.445ZM17.3303 18.671C17.3781 18.9575 17.3629 19.2509 17.2858 19.5309C17.2087 19.8109 17.0716 20.0707 16.8839 20.2924C16.6963 20.514 16.4626 20.6921 16.1991 20.8143C15.9357 20.9365 15.6487 20.9999 15.3583 21V19L17.3303 18.671ZM19.0983 13C19.2463 13.0001 19.3924 12.9673 19.5262 12.904C19.66 12.8408 19.7781 12.7486 19.8719 12.6342C19.9657 12.5198 20.033 12.386 20.0689 12.2424C20.1048 12.0988 20.1093 11.9491 20.0803 11.804L22.0403 11.412C22.1273 11.8472 22.1167 12.2962 22.0092 12.7267C21.9017 13.1573 21.7 13.5586 21.4187 13.9018C21.1374 14.245 20.7834 14.5215 20.3824 14.7114C19.9813 14.9013 19.5431 14.9999 19.0993 15L19.0983 13ZM17.8983 3C18.592 2.99996 19.2642 3.24026 19.8006 3.68003C20.3369 4.11979 20.7044 4.73183 20.8403 5.412L18.8803 5.804C18.835 5.57705 18.7123 5.37287 18.5332 5.22625C18.3541 5.07964 18.1298 4.99968 17.8983 5V3ZM15.1443 21C14.4859 21 13.8376 20.8374 13.257 20.5267C12.6765 20.2161 12.1806 19.7668 11.8153 19.219L13.4803 18.109C13.6629 18.383 13.9103 18.6077 14.2006 18.7631C14.4909 18.9186 14.8151 18.9999 15.1443 19V21ZM6.53833 5C6.27311 5 6.01876 5.10536 5.83122 5.29289C5.64369 5.48043 5.53833 5.73478 5.53833 6H3.53833C3.53833 5.20435 3.8544 4.44129 4.41701 3.87868C4.97962 3.31607 5.74268 3 6.53833 3V5Z" fill="white"/>
<path d="M8.53833 14V4" stroke="white" stroke-width="2"/>
</svg>
